<svg width="114" height="114" viewBox="0 0 114 114" fill="none" xmlns="http://www.w3.org/2000/svg">
<path d="M95 14.25H19C13.7608 14.25 9.5 18.5107 9.5 23.75V90.25C9.5 95.4893 13.7608 99.75 19 99.75H95C100.239 99.75 104.5 95.4893 104.5 90.25V23.75C104.5 18.5107 100.239 14.25 95 14.25ZM95.0048 42.75C95 42.75 95 42.75 95.0048 42.75H92.796L80.1278 23.75H95L95.0048 42.75ZM45.296 42.75L32.6278 23.75H44.9588L57.627 42.75H45.296ZM69.046 42.75L56.3778 23.75H68.7088L81.377 42.75H69.046ZM19 23.75H21.2088L33.877 42.75H19V23.75ZM19 90.25V52.25H95L95.0095 90.25H19Z" fill="#E89005"/>
<path d="M47.5 85.5L73.625 71.25L47.5 57V85.5Z" fill="#E89005"/>
</svg>
