<svg width="114" height="82" viewBox="0 0 114 82" fill="none" xmlns="http://www.w3.org/2000/svg">
<path d="M25.9854 81.2465C25.5334 81.2465 25.1086 80.967 24.9462 80.5167C24.2827 78.6814 22.944 77.2141 21.1773 76.3854C19.411 75.5567 17.4266 75.4655 15.5913 76.1291C15.3162 76.229 15.0118 76.2147 14.7466 76.0904C14.4819 75.9661 14.2764 75.7412 14.177 75.4656L13.1704 72.68H9.51749C8.90757 72.68 8.41256 72.185 8.41256 71.5751C8.41256 67.5465 5.13479 64.2688 1.10566 64.2688C0.495741 64.2688 0.000732422 63.7737 0.000732422 63.1638V28.2066C0.000732422 27.5967 0.495741 27.1017 1.10566 27.1017C5.13479 27.1017 8.41256 23.8239 8.41256 19.7948C8.41256 19.1849 8.90757 18.6899 9.51749 18.6899H40.424L89.868 0.819281C90.4414 0.611554 91.0756 0.90878 91.2828 1.48279C92.6524 5.27159 96.85 7.23947 100.638 5.87047C100.913 5.77102 101.218 5.78483 101.483 5.90914C101.748 6.03344 101.953 6.2583 102.053 6.53398L113.935 39.4095C114.143 39.9835 113.845 40.6166 113.271 40.8244C109.483 42.1939 107.514 46.3904 108.884 50.1798C108.984 50.4555 108.969 50.7593 108.845 51.0245C108.721 51.2897 108.496 51.4952 108.22 51.5947L106.073 52.3703V63.1638C106.073 63.7737 105.578 64.2688 104.968 64.2688C100.939 64.2688 97.6616 67.5465 97.6616 71.5751C97.6616 72.185 97.1666 72.68 96.5566 72.68H49.88L26.361 81.1808C26.2367 81.2255 26.1102 81.2465 25.9854 81.2465ZM18.0652 73.4839C21.6076 73.4839 24.9583 75.4777 26.5892 78.7488L43.3433 72.6933H15.5244L15.9012 73.7358C16.6216 73.5656 17.3476 73.4839 18.0652 73.4839ZM10.5578 70.4702H95.5158C96.023 66.104 99.4974 62.6301 103.864 62.1224V29.2607C99.4974 28.7536 96.023 25.2791 95.5158 20.913H40.5804C40.5224 20.913 40.4655 20.9086 40.4091 20.8997H10.5578C10.0506 25.2658 6.57617 28.7403 2.21004 29.248V62.1224C6.57617 62.6301 10.0506 66.104 10.5578 70.4702ZM46.9249 18.6899H96.5572C97.1671 18.6899 97.6621 19.1849 97.6621 19.7948C97.6621 23.8234 100.94 27.1017 104.969 27.1017C105.579 27.1017 106.074 27.5967 106.074 28.2066V50.0207L106.489 49.871C105.482 45.5927 107.569 41.1437 111.502 39.1824L100.328 8.26485C96.0484 9.27254 91.6005 7.18478 89.6392 3.25178L46.9249 18.6899ZM95.8351 63.2423H10.2379C9.62798 63.2423 9.13297 62.7473 9.13297 62.1373V29.2591C9.13297 28.6491 9.62798 28.1541 10.2379 28.1541H95.8351C96.445 28.1541 96.9401 28.6491 96.9401 29.2591V62.1373C96.9401 62.7478 96.445 63.2423 95.8351 63.2423ZM11.3428 61.0324H94.7302V30.364H11.3428V61.0324ZM23.2783 56.5807C22.6684 56.5807 22.1739 56.0862 22.1734 55.4763L22.1595 37.0748L17.7647 37.0781C17.7641 37.0781 17.7636 37.0781 17.7636 37.0781C17.1537 37.0781 16.6592 36.5836 16.6586 35.9737C16.6581 35.3638 17.1526 34.8688 17.763 34.8682L23.2623 34.8644C23.2628 34.8644 23.2628 34.8644 23.2628 34.8644L28.7626 34.8605C28.7632 34.8605 28.7637 34.8605 28.7637 34.8605C29.3736 34.8605 29.8681 35.355 29.8686 35.9649C29.8692 36.5748 29.3747 37.0698 28.7643 37.0704L24.3694 37.0737L24.3827 55.4757C24.3832 56.0856 23.8888 56.5807 23.2788 56.5812C23.2788 56.5807 23.2783 56.5807 23.2783 56.5807ZM33.0829 56.5735C32.4729 56.5735 31.9785 56.079 31.9779 55.4691L31.9636 35.9621C31.963 35.3522 32.4575 34.8572 33.0674 34.8566C33.068 34.8566 33.0685 34.8566 33.0685 34.8566C33.6784 34.8566 34.1729 35.3511 34.1734 35.961L34.1878 55.468C34.1884 56.0779 33.6939 56.5729 33.084 56.5735C33.0834 56.5735 33.0829 56.5735 33.0829 56.5735ZM38.2644 56.5696C37.6545 56.5696 37.1601 56.0751 37.1595 55.4652L37.1451 35.9582C37.1451 35.9571 37.1451 35.956 37.1451 35.9549C37.1451 35.9533 37.1451 35.9527 37.1451 35.9516C37.1451 35.9511 37.1451 35.9505 37.1451 35.9505C37.1451 35.9494 37.1451 35.9489 37.1451 35.9478C37.1451 35.9478 37.1451 35.9472 37.1451 35.9466C37.1451 35.9461 37.1451 35.945 37.1451 35.9444C37.1451 35.9433 37.1451 35.9422 37.1451 35.9411C37.1451 35.94 37.1451 35.9395 37.1451 35.9384V35.9378C37.1451 35.9373 37.1451 35.9367 37.1451 35.9356C37.1451 35.935 37.1451 35.9345 37.1451 35.9339C37.1457 35.9334 37.1457 35.9323 37.1457 35.9312V35.9306C37.1457 35.9301 37.1457 35.929 37.1457 35.9284V35.9279C37.1457 35.9257 37.1457 35.9234 37.1457 35.9212C37.1463 35.9124 37.1463 35.9047 37.1468 35.8964C37.1468 35.8958 37.1468 35.8947 37.1474 35.8936V35.8931C37.1474 35.8875 37.1479 35.8815 37.1485 35.8759C37.1485 35.8748 37.1485 35.8743 37.1485 35.8732V35.8726C37.149 35.8715 37.149 35.8704 37.149 35.8693C37.149 35.8687 37.149 35.8676 37.149 35.8665C37.1501 35.8665 37.1496 35.8649 37.1496 35.8638C37.1496 35.8632 37.1496 35.8627 37.1496 35.8627C37.1496 35.8616 37.1496 35.8605 37.1496 35.8594L37.1501 35.8588C37.1501 35.8582 37.1501 35.8571 37.1501 35.8566V35.856C37.1501 35.8549 37.1507 35.8538 37.1507 35.8522C37.1507 35.8516 37.1507 35.8505 37.1507 35.8494V35.8489C37.1512 35.8466 37.1512 35.8444 37.1518 35.8422C37.1518 35.8422 37.1518 35.8422 37.1518 35.8417C37.1518 35.84 37.1518 35.8389 37.1518 35.8384C37.1523 35.8373 37.1523 35.8362 37.1523 35.835C37.1529 35.8306 37.1534 35.8262 37.154 35.8223C37.154 35.8212 37.1545 35.8212 37.1545 35.8201C37.1545 35.8196 37.1545 35.819 37.1545 35.8179V35.8174C37.1556 35.8085 37.1573 35.7997 37.1584 35.7903C37.2396 35.2677 37.6882 34.866 38.2313 34.8572C38.2318 34.8572 38.2318 34.8572 38.2318 34.8572C38.2363 34.8572 38.2434 34.8566 38.2429 34.8572C38.244 34.8572 38.2457 34.8572 38.2479 34.8572C38.2484 34.8572 38.249 34.8572 38.2495 34.8572L46.5669 34.8511H46.5674C47.1774 34.8511 47.6718 35.3456 47.6724 35.9549L47.6751 39.0692C47.6757 39.6796 47.1812 40.1747 46.5713 40.1752C46.5707 40.1752 46.5702 40.1752 46.5702 40.1752C45.9603 40.1752 45.4658 39.6813 45.4653 39.0714L45.4636 37.0621L39.3567 37.0665L39.3688 54.3636L45.4758 54.3592L45.4747 52.7543C45.4741 52.1444 45.9686 51.6493 46.5785 51.6488C46.579 51.6488 46.579 51.6488 46.5796 51.6488C47.1895 51.6488 47.684 52.1433 47.6845 52.7532L47.6867 55.463C47.6867 55.7558 47.5707 56.037 47.3635 56.2448C47.1564 56.4525 46.8757 56.5685 46.5829 56.569L38.2661 56.5751C38.265 56.5696 38.2644 56.5696 38.2644 56.5696ZM51.1512 56.5602C50.5413 56.5602 50.0469 56.0658 50.0463 55.4558L50.0319 35.9489C50.0314 35.3389 50.5258 34.8439 51.1358 34.8434C51.1363 34.8434 51.1369 34.8434 51.1369 34.8434C51.7468 34.8434 52.2412 35.3378 52.2418 35.9478L52.2473 42.8326L59.1388 35.2014C59.547 34.7484 60.2454 34.7124 60.6995 35.1218C61.152 35.5306 61.1879 36.2295 60.779 36.6825L52.6346 45.701L60.7928 54.7072C61.2022 55.1597 61.168 55.858 60.7155 56.268C60.263 56.6779 59.5636 56.6425 59.1548 56.1906L52.2517 48.5699L52.2573 55.4547C52.2578 56.0646 51.7634 56.5597 51.1534 56.5602C51.1518 56.5602 51.1512 56.5602 51.1512 56.5602ZM64.9684 56.5497C64.3585 56.5497 63.864 56.0553 63.8634 55.4453L63.8491 35.9384C63.8485 35.3516 64.3049 34.8721 64.8822 34.8351C64.9054 34.8334 64.9291 34.8329 64.9529 34.8329L73.2691 34.8268C73.2697 34.8268 73.2703 34.8268 73.2703 34.8268C73.8802 34.8268 74.3746 35.3213 74.3752 35.9312C74.3757 36.5411 73.8813 37.0361 73.2714 37.0367L66.0595 37.0422L66.065 44.5855L73.2769 44.58C73.2774 44.58 73.278 44.58 73.278 44.58C73.8879 44.58 74.3824 45.0745 74.3829 45.6844C74.3835 46.2943 73.889 46.7893 73.2791 46.7899L66.0667 46.7954L66.0722 54.3393L73.2841 54.3338C73.2846 54.3338 73.2852 54.3338 73.2852 54.3338C73.8951 54.3338 74.3895 54.8282 74.3901 55.4382C74.3907 56.0481 73.8962 56.5431 73.2863 56.5436L64.9695 56.5497C64.9689 56.5497 64.9684 56.5497 64.9684 56.5497ZM82.824 56.5365C82.2141 56.5365 81.7197 56.042 81.7191 55.4321L81.7058 37.03L77.3104 37.0333C77.3099 37.0333 77.3093 37.0333 77.3093 37.0333C76.6994 37.0333 76.2049 36.5389 76.2044 35.929C76.2038 35.319 76.6983 34.824 77.3082 34.8235L88.3089 34.8152C88.3095 34.8152 88.31 34.8152 88.31 34.8152C88.9199 34.8152 89.4144 35.3097 89.4149 35.9196C89.4155 36.5295 88.921 37.0245 88.3111 37.0251L83.9157 37.0284L83.929 55.431C83.9295 56.0409 83.4351 56.5359 82.8251 56.5365C82.8246 56.5365 82.824 56.5365 82.824 56.5365Z" fill="#DD8901"/>
</svg>
